<?xml version="1.0" encoding="UTF-8" standalone="no"?> <!-- Created with Vectornator for iOS (http://vectornator.io/) --><!DOCTYPE svg PUBLIC "-//W3C//DTD SVG 1.1//EN" "http://www.w3.org/Graphics/SVG/1.1/DTD/svg11.dtd">
<svg height="100%" style="fill-rule:nonzero;clip-rule:evenodd;stroke-linecap:round;stroke-linejoin:round;" xmlns:xlink="http://www.w3.org/1999/xlink" xmlns="http://www.w3.org/2000/svg" xml:space="preserve" width="100%" xmlns:vectornator="http://vectornator.io" version="1.1" viewBox="0 0 1024 1024">
<metadata>
<vectornator:setting key="DimensionsVisible" value="1"/>
<vectornator:setting key="PencilOnly" value="0"/>
<vectornator:setting key="SnapToPoints" value="0"/>
<vectornator:setting key="OutlineMode" value="0"/>
<vectornator:setting key="CMYKEnabledKey" value="0"/>
<vectornator:setting key="RulersVisible" value="1"/>
<vectornator:setting key="SnapToEdges" value="0"/>
<vectornator:setting key="GuidesVisible" value="1"/>
<vectornator:setting key="DisplayWhiteBackground" value="0"/>
<vectornator:setting key="doHistoryDisabled" value="0"/>
<vectornator:setting key="SnapToGuides" value="1"/>
<vectornator:setting key="TimeLapseWatermarkDisabled" value="0"/>
<vectornator:setting key="Units" value="Pixels"/>
<vectornator:setting key="DynamicGuides" value="0"/>
<vectornator:setting key="IsolateActiveLayer" value="0"/>
<vectornator:setting key="SnapToGrid" value="0"/>
</metadata>
<defs/>
<g id="Capa 3" vectornator:layerName="Capa 3" visibility="hidden">
<g opacity="1">
<path d="M413.956+460.59C411.971+460.59+410.532+460.045+409.637+458.955C408.743+457.865+408.296+456.539+408.296+454.977L410.499+454.977C410.592+456.063+410.796+456.852+411.108+457.344C411.655+458.227+412.643+458.668+414.073+458.668C415.182+458.668+416.073+458.371+416.745+457.777C417.417+457.184+417.753+456.418+417.753+455.481C417.753+454.324+417.399+453.516+416.692+453.055C415.985+452.594+415.003+452.363+413.745+452.363C413.604+452.363+413.462+452.365+413.317+452.369C413.172+452.373+413.026+452.379+412.878+452.387L412.878+450.524C413.096+450.547+413.28+450.563+413.428+450.57C413.577+450.578+413.737+450.582+413.909+450.582C414.698+450.582+415.346+450.457+415.854+450.207C416.745+449.77+417.19+448.988+417.19+447.863C417.19+447.027+416.893+446.383+416.299+445.93C415.706+445.477+415.014+445.25+414.225+445.25C412.819+445.25+411.846+445.719+411.307+446.656C411.01+447.172+410.842+447.906+410.803+448.859L408.717+448.859C408.717+447.609+408.967+446.547+409.467+445.672C410.327+444.109+411.838+443.328+414.003+443.328C415.713+443.328+417.038+443.709+417.975+444.471C418.913+445.233+419.381+446.336+419.381+447.781C419.381+448.813+419.104+449.649+418.549+450.289C418.206+450.688+417.76+451+417.213+451.227C418.096+451.469+418.786+451.936+419.282+452.627C419.778+453.318+420.026+454.164+420.026+455.164C420.026+456.766+419.499+458.07+418.444+459.078C417.389+460.086+415.893+460.59+413.956+460.59Z" opacity="1" fill="#000000"/>
<path d="M423.366+448.25L423.366+446.633C424.889+446.484+425.952+446.236+426.553+445.889C427.155+445.541+427.604+444.719+427.901+443.422L429.565+443.422L429.565+460.133L427.315+460.133L427.315+448.25L423.366+448.25Z" opacity="1" fill="#000000"/>
</g>
<use opacity="1" xlink:href="#(null)" transform="matrix(0.655115 -3.64481e-08 3.64481e-08 0.655115 86.9176 -22.8983)"/>
</g>
<g id="Capa 2" vectornator:layerName="Capa 2">
<g opacity="1">
<path stroke="#000000" stroke-width="30" d="M340.351+796.253L148.089+460.482C148.089+460.482+97.6366+390.479+175.243+345.964C251.366+302.299+586.869+108.955+586.869+108.955C586.869+108.955+651.707+53.9911+703.618+144.652C752.156+229.423+907.587+495.188+907.587+495.188C907.587+495.188+951.486+565.694+866.067+618.041C780.647+670.388+484.764+837.684+484.764+837.684C401.877+885.539+380.765+866.252+340.351+796.253Z" fill="#ffffff" stroke-linecap="round" opacity="1" stroke-linejoin="round"/>
<path stroke="#000000" stroke-width="30" d="M172.407+503.214L132.91+434.913C132.91+434.913+120.827+376.894+186.355+341.05C251.883+305.207+590.429+105.887+590.429+105.887C590.429+105.887+659.648+70.1383+692.183+123.447C724.718+176.756+727.919+182.97+727.919+182.97L172.407+503.214Z" fill="#951c1c" stroke-linecap="round" opacity="1" stroke-linejoin="round"/>
<path d="M256.782+510.58L361.986+449.841C365.05+448.071+368.969+449.121+370.738+452.186L406.283+513.751C408.052+516.815+407.002+520.734+403.938+522.503L298.733+583.243C295.669+585.012+291.75+583.962+289.981+580.898L254.436+519.333C252.667+516.268+253.717+512.35+256.782+510.58Z" opacity="1" fill="#112f70"/>
<path d="M316.369+612.198L423.991+550.062C427.126+548.252+431.135+549.326+432.945+552.461L469.306+615.441C471.116+618.576+470.042+622.585+466.907+624.395L359.285+686.531C356.15+688.341+352.141+687.266+350.331+684.131L313.97+621.152C312.16+618.017+313.234+614.008+316.369+612.198Z" opacity="1" fill="#112f70"/>
<path d="M635.597+427.891L743.219+365.756C746.354+363.946+750.363+365.02+752.173+368.155L788.534+431.135C790.344+434.27+789.27+438.279+786.135+440.089L678.513+502.224C675.378+504.034+671.37+502.96+669.56+499.825L633.198+436.845C631.388+433.71+632.462+429.701+635.597+427.891Z" opacity="1" fill="#112f70"/>
<path d="M415.654+417.742L523.276+355.607C526.411+353.797+530.419+354.871+532.229+358.006L568.591+420.986C570.401+424.121+569.327+428.129+566.192+429.939L458.57+492.075C455.435+493.885+451.426+492.811+449.616+489.676L413.255+426.696C411.444+423.561+412.519+419.552+415.654+417.742Z" opacity="1" fill="#112f70"/>
<path d="M475.983+520.045L583.605+457.909C586.74+456.099+590.749+457.173+592.559+460.308L628.92+523.288C630.73+526.423+629.656+530.432+626.521+532.242L518.899+594.377C515.764+596.187+511.755+595.113+509.945+591.978L473.584+528.998C471.774+525.863+472.848+521.855+475.983+520.045Z" opacity="1" fill="#112f70"/>
<path d="M576.217+325.041L683.839+262.906C686.974+261.096+690.982+262.17+692.792+265.305L729.154+328.285C730.964+331.42+729.89+335.428+726.755+337.238L619.133+399.374C615.998+401.184+611.989+400.11+610.179+396.975L573.818+333.995C572.008+330.86+573.082+326.851+576.217+325.041Z" opacity="1" fill="#112f70"/>
<path stroke="#000000" stroke-width="30" d="M747.657+419.852C715.597+474.231+681.258+497.428+670.732+512.195C659.92+527.365+665.906+557.006+671.626+599.088C686.166+706.059+598.036+773.421+598.036+773.421C598.036+773.421+941.03+607.411+793.719+308.756C792.928+307.154+768.514+384.477+747.657+419.852Z" fill="#ffffff" stroke-linecap="round" opacity="1" stroke-linejoin="round"/>
</g>
</g>
<g id="Capa 1" vectornator:layerName="Capa 1" visibility="hidden">
<g opacity="1">
<path d="M452.72+417.132C461.375+417.132+468.831+414.592+475.087+409.512C481.343+404.432+484.471+397.141+484.471+387.639C484.471+380.395+481.978+374.163+476.992+368.942C472.006+363.72+465.28+361.11+456.813+361.11C451.074+361.11+446.347+361.909+442.631+363.509C438.915+365.108+435.975+367.225+433.811+369.859C431.648+372.493+429.601+375.88+427.673+380.019C425.744+384.158+423.98+388.062+422.381+391.731C421.44+393.707+419.747+395.259+417.301+396.388C414.855+397.517+412.033+398.081+408.834+398.081C405.071+398.081+401.614+396.553+398.462+393.495C395.311+390.438+393.735+386.369+393.735+381.289C393.735+376.397+395.217+371.246+398.18+365.837C401.144+360.428+405.471+355.277+411.163+350.385C416.854+345.493+423.933+341.566+432.4+338.602C440.867+335.639+450.322+334.157+460.764+334.157C469.889+334.157+478.215+335.404+485.741+337.897C493.267+340.39+499.805+343.988+505.356+348.692C510.906+353.396+515.093+358.852+517.915+365.061C520.737+371.27+522.148+377.949+522.148+385.099C522.148+394.507+520.102+402.574+516.01+409.3C511.917+416.026+506.061+422.588+498.441+428.985C505.779+432.936+511.965+437.452+516.998+442.532C522.031+447.612+525.817+453.233+528.357+459.395C530.897+465.557+532.167+472.213+532.167+479.363C532.167+487.924+530.45+496.202+527.017+504.199C523.583+512.195+518.526+519.321+511.847+525.577C505.168+531.833+497.242+536.725+488.069+540.253C478.897+543.781+468.76+545.545+457.659+545.545C446.37+545.545+436.257+543.522+427.32+539.477C418.383+535.432+411.021+530.375+405.236+524.307C399.45+518.239+395.076+511.96+392.112+505.469C389.149+498.977+387.667+493.615+387.667+489.382C387.667+483.925+389.431+479.527+392.959+476.188C396.487+472.848+400.885+471.178+406.153+471.178C408.787+471.178+411.327+471.954+413.773+473.506C416.219+475.059+417.818+476.917+418.571+479.08C423.463+492.157+428.708+501.87+434.305+508.22C439.903+514.57+447.781+517.746+457.942+517.746C463.774+517.746+469.395+516.311+474.805+513.442C480.214+510.572+484.683+506.315+488.21+500.671C491.738+495.026+493.502+488.488+493.502+481.056C493.502+470.049+490.492+461.418+484.471+455.162C478.45+448.906+470.077+445.778+459.353+445.778C457.471+445.778+454.555+445.966+450.604+446.342C446.653+446.718+444.113+446.907+442.984+446.907C437.809+446.907+433.811+445.613+430.989+443.026C428.167+440.439+426.756+436.841+426.756+432.231C426.756+427.715+428.449+424.07+431.836+421.295C435.222+418.519+440.255+417.132+446.935+417.132L452.72+417.132Z" opacity="1" fill="#000000"/>
<path d="M626.854+522.684L626.854+394.271C602.959+412.616+586.872+421.788+578.593+421.788C574.642+421.788+571.138+420.213+568.081+417.061C565.023+413.91+563.494+410.264+563.494+406.125C563.494+401.327+565+397.799+568.01+395.541C571.02+393.284+576.336+390.367+583.956+386.792C595.339+381.43+604.441+375.786+611.261+369.859C618.082+363.932+624.126+357.3+629.394+349.962C634.662+342.624+638.096+338.108+639.696+336.415C641.295+334.722+644.305+333.875+648.727+333.875C653.713+333.875+657.711+335.803+660.721+339.661C663.732+343.518+665.237+348.833+665.237+355.606L665.237+517.181C665.237+536.09+658.793+545.545+645.905+545.545C640.166+545.545+635.556+543.616+632.075+539.759C628.595+535.902+626.854+530.211+626.854+522.684Z" opacity="1" fill="#000000"/>
</g>
<path stroke="#000000" stroke-width="4" d="M752.487+512.559C697.533+543.623+656.196+546.542+639.697+554.068C622.748+561.799+613.111+590.462+597.024+629.766C556.131+729.675+446.127+743.948+446.127+743.948C446.127+743.948+826.173+771.676+847.926+439.377C848.043+437.595+788.238+492.351+752.487+512.559Z" fill="none" stroke-linecap="round" opacity="1" stroke-linejoin="round"/>
<path stroke="#000000" stroke-width="4" d="M242.811+78.4327L847.228+78.4327L847.228+744.562L242.811+744.562L242.811+78.4327Z" fill="none" stroke-linecap="round" opacity="1" stroke-linejoin="round"/>
<path stroke="#951b1b" stroke-width="4" d="M242.259+76.5243L848.322+76.5243L848.322+210.29L242.259+210.29L242.259+76.5243Z" fill="#951c1c" stroke-linecap="round" opacity="1" stroke-linejoin="round"/>
</g>
</svg>
