<svg width="2835" height="827" xmlns="http://www.w3.org/2000/svg" preserveAspectRatio="xMidYMid meet" version="1.0">
 <metadata>Created by potrace 1.16, written by Peter Selinger 2001-2019</metadata>

 <g>
  <title>Layer 1</title>
  <g id="svg_1" fill="#000000" transform="translate(0.000000,827.000000) scale(0.100000,-0.100000)">
   <path fill="#ffffff" id="svg_2" d="m16200,6524c-129,-25 -255,-83 -298,-139c-87,-110 -91,-286 -9,-409c39,-59 86,-101 267,-237c245,-185 280,-231 280,-366c0,-73 -3,-84 -31,-122c-45,-62 -112,-91 -214,-91c-139,0 -213,52 -285,200c-17,36 -35,72 -39,80c-9,18 -49,26 -62,13c-8,-8 0,-135 17,-251c8,-54 26,-66 136,-94c112,-29 326,-31 411,-5c208,66 327,241 296,436c-21,136 -104,232 -348,406c-161,115 -245,196 -255,247c-21,106 9,194 77,227c91,43 220,35 294,-18c29,-21 48,-49 77,-112c55,-118 86,-150 115,-115c15,18 -14,274 -32,293c-28,27 -152,55 -262,58c-60,2 -121,1 -135,-1z"/>
   <path fill="#ffffff" id="svg_3" d="m7078,6504c-5,-4 -8,-20 -8,-35c0,-31 7,-34 95,-45c112,-13 102,27 108,-452c4,-407 5,-419 29,-502c66,-225 179,-326 407,-364c123,-21 186,-20 298,4c143,30 216,75 279,173c94,145 105,215 113,705c7,455 -1,424 113,437c75,9 98,19 98,44c0,38 -23,44 -142,34c-68,-5 -164,-5 -240,0c-70,5 -135,7 -143,3c-18,-7 -20,-50 -2,-64c6,-5 44,-13 84,-17c57,-5 78,-12 99,-31l26,-25l-5,-387c-4,-362 -6,-392 -27,-472c-30,-113 -58,-166 -117,-221c-72,-67 -124,-84 -263,-84c-141,0 -196,20 -265,97c-90,100 -105,201 -105,714l0,355l24,23c18,19 38,25 98,31c91,9 101,14 96,51l-3,29l-75,-1c-41,0 -136,-2 -210,-4c-74,-1 -184,1 -245,5c-60,4 -113,4 -117,-1z"/>
   <path fill="#ffffff" id="svg_4" d="m8712,6494c-12,-22 -4,-52 17,-58c9,-2 44,-8 78,-11c39,-4 72,-14 88,-27l25,-19l0,-564c0,-495 -2,-565 -15,-579c-17,-16 -60,-30 -135,-44c-41,-7 -45,-10 -45,-37l0,-29l255,0c140,-1 261,3 268,8c18,13 15,43 -5,51c-10,3 -38,9 -63,12c-75,8 -119,23 -130,43c-6,12 -10,182 -10,467l0,448l43,-45c24,-25 144,-153 267,-285c123,-132 262,-280 310,-330c47,-49 146,-155 220,-234c113,-120 173,-171 204,-171c2,0 12,7 20,16c14,14 16,86 16,644l0,629l25,20c16,12 49,22 90,26c80,9 100,22 91,60l-7,27l-107,-8c-59,-4 -147,-6 -197,-4c-203,9 -220,7 -223,-18c-5,-36 13,-49 83,-56c79,-8 114,-23 121,-50c2,-12 3,-223 2,-470l-3,-449l-99,109c-55,60 -129,141 -165,179c-37,39 -93,99 -125,135c-175,193 -486,529 -543,586l-42,43l-73,-8c-40,-4 -98,-5 -128,0c-83,12 -98,11 -108,-7z"/>
   <path fill="#ffffff" id="svg_5" d="m10471,6496c-16,-19 -6,-53 17,-60c9,-2 43,-7 74,-11c34,-4 67,-15 82,-26l26,-20l0,-565c0,-655 11,-594 -114,-614c-81,-14 -104,-28 -88,-56c9,-16 36,-17 323,-16c173,0 317,1 322,1c11,1 9,49 -3,56c-5,3 -29,8 -52,11c-73,9 -117,24 -133,47c-13,19 -15,93 -15,575l0,553l24,24c19,18 39,25 95,31c56,5 75,11 86,27c10,15 11,25 4,39c-10,18 -18,19 -152,11c-174,-9 -170,-9 -343,0c-120,7 -142,6 -153,-7z"/>
   <path fill="#ffffff" id="svg_6" d="m11267,6503c-12,-11 -8,-50 6,-60c6,-6 33,-13 60,-16c87,-12 87,-12 174,-226c30,-74 60,-149 68,-165c8,-17 39,-94 70,-171c30,-77 60,-149 65,-160c5,-11 21,-49 35,-85c15,-36 35,-85 46,-110c10,-25 51,-126 91,-224c73,-179 93,-210 124,-191c8,6 47,84 85,175c61,143 118,278 164,385c17,38 42,97 155,365c50,118 103,243 118,278c38,88 70,118 135,127c58,8 77,19 77,45c0,37 -24,43 -130,34c-57,-5 -155,-6 -231,-1c-122,8 -134,8 -146,-9c-7,-10 -13,-21 -13,-25c0,-20 35,-38 90,-44c67,-8 110,-34 110,-68c0,-12 -11,-46 -25,-75c-14,-30 -25,-59 -25,-64c0,-6 -11,-36 -24,-67c-14,-31 -41,-99 -61,-151c-21,-52 -61,-156 -90,-230c-29,-74 -70,-179 -91,-232c-20,-54 -41,-98 -45,-98c-9,0 4,-32 -159,415c-76,209 -145,396 -153,415c-43,104 -23,143 82,155c55,6 91,23 91,44c0,4 -6,15 -13,25c-13,17 -24,18 -178,9c-90,-5 -209,-6 -264,-2c-135,10 -190,10 -198,2z"/>
   <path fill="#ffffff" id="svg_7" d="m19922,6498c-7,-7 -12,-16 -12,-21c0,-5 -19,-53 -41,-106c-23,-53 -63,-145 -89,-206c-26,-60 -64,-148 -83,-195c-45,-107 -204,-481 -265,-623c-61,-143 -77,-158 -193,-181c-29,-6 -45,-32 -30,-50c6,-8 86,-11 258,-11c230,0 248,2 251,18c6,30 -15,44 -74,51c-67,8 -110,28 -117,55c-2,11 11,64 30,118c19,54 45,125 57,158c14,41 29,63 46,72c37,19 369,18 414,-1c19,-8 37,-20 41,-27c11,-17 73,-191 93,-261c15,-54 15,-58 -2,-77c-11,-12 -42,-25 -75,-31c-107,-21 -103,-18 -99,-48l3,-27l320,1l320,0l3,26c3,29 -2,32 -77,43c-51,8 -91,43 -114,100c-9,22 -60,146 -112,275c-53,129 -108,262 -122,295c-15,33 -35,81 -45,108c-42,109 -170,425 -207,510c-16,37 -25,47 -44,47c-12,0 -28,-5 -35,-12zm-17,-365c9,-27 43,-118 75,-203c72,-193 83,-227 75,-240c-10,-16 -317,-13 -340,4c-18,13 -18,16 14,97c18,46 40,102 47,124c8,22 21,54 28,70c8,17 29,67 46,113c18,45 34,82 35,82c1,0 10,-21 20,-47z"/>
   <path fill="#ffffff" id="svg_8" d="m13525,6488c-82,-4 -260,-7 -395,-6l-245,3l-3,-26c-3,-30 -5,-29 115,-50c118,-20 108,37 108,-611l0,-560l-22,-18c-12,-10 -53,-23 -90,-29c-120,-21 -115,-19 -111,-49l3,-27l225,4c124,2 376,-2 561,-9c185,-7 347,-10 362,-7c23,6 28,17 56,134c17,71 34,149 37,176c7,45 6,47 -19,47c-20,0 -36,-15 -78,-72c-133,-183 -216,-223 -453,-216c-115,3 -148,7 -181,23l-40,20l-3,284c-2,201 1,288 9,297c9,11 49,14 176,14l164,0l19,-43c10,-23 27,-82 36,-130c17,-85 18,-88 43,-85l26,3l0,275l0,275l-22,3c-27,4 -36,-12 -58,-111c-25,-117 -25,-117 -206,-117c-84,0 -159,5 -170,10c-18,10 -19,24 -19,244c0,254 -2,243 60,277c34,18 299,25 352,10c49,-15 107,-67 149,-134c58,-92 104,-129 124,-98c10,17 -40,277 -57,299c-12,14 -208,14 -453,0z"/>
   <path fill="#ffffff" id="svg_9" d="m14735,6488c-38,-5 -159,-6 -268,-3c-179,6 -198,5 -204,-11c-9,-23 9,-48 38,-52c73,-9 133,-26 150,-43c18,-18 19,-41 19,-577c0,-646 10,-591 -107,-612c-104,-18 -105,-18 -101,-48l3,-26l330,0l330,0l0,23c0,31 -14,38 -101,51c-118,19 -114,7 -114,294c0,274 -6,256 79,256c62,0 77,-17 126,-140c77,-195 123,-277 200,-356c49,-51 90,-82 131,-101c57,-27 64,-27 244,-28c178,0 185,1 185,20c0,15 -11,22 -53,31c-77,17 -109,32 -178,80c-107,75 -228,226 -316,394c-70,132 -70,132 6,169c163,80 234,201 223,376c-2,46 -12,98 -21,117c-43,90 -141,165 -244,187c-62,13 -256,12 -357,-1zm210,-89c53,-14 111,-71 144,-139c23,-49 26,-67 26,-170c0,-93 -4,-122 -19,-150c-43,-80 -102,-118 -202,-127c-79,-7 -171,12 -185,39c-6,12 -9,116 -7,274c3,240 4,257 22,270c24,17 162,19 221,3z"/>
   <path fill="#ffffff" id="svg_10" d="m16884,6481c-8,-9 -4,-40 7,-47c6,-4 45,-13 86,-20c124,-21 113,40 113,-609c0,-521 -1,-564 -17,-583c-13,-15 -42,-26 -96,-36c-86,-15 -102,-24 -93,-52c5,-18 23,-19 328,-18c295,0 322,2 332,18c16,25 -9,39 -96,54c-125,22 -113,-43 -116,604c-2,476 0,564 12,583c10,16 32,25 78,34c115,22 123,25 126,49c2,12 0,23 -5,23c-24,4 -655,4 -659,0z"/>
   <path fill="#ffffff" id="svg_11" d="m18235,6478c-60,-5 -212,-7 -337,-4c-223,5 -227,5 -233,-15c-10,-31 6,-41 101,-60c137,-28 124,37 124,-608c0,-306 -4,-561 -8,-568c-13,-20 -78,-43 -142,-50c-65,-6 -85,-21 -75,-52c6,-19 16,-19 283,-18c152,1 356,0 452,-3c135,-3 194,0 260,12c286,55 468,214 542,473c31,112 32,306 1,415c-43,148 -109,254 -204,330c-171,135 -397,179 -764,148zm360,-87c165,-46 246,-128 316,-321c22,-61 23,-80 23,-290c1,-209 -1,-230 -23,-300c-49,-156 -129,-245 -259,-287c-48,-15 -91,-18 -260,-18l-204,0l-29,33l-29,32l0,549c0,539 0,549 21,575c29,37 65,44 229,45c115,1 160,-3 215,-18z"/>
   <path fill="#ffffff" id="svg_12" d="m21365,6479c-60,-6 -212,-8 -337,-5c-222,5 -227,4 -234,-16c-9,-30 8,-40 102,-59c137,-28 124,37 124,-608c0,-306 -4,-561 -8,-568c-13,-20 -78,-43 -142,-50c-63,-6 -87,-24 -74,-56c4,-13 47,-15 282,-13c152,0 356,-1 452,-3c202,-6 302,8 423,59c94,39 153,76 210,133c130,130 188,288 186,507c-2,364 -177,587 -524,667c-79,18 -322,24 -460,12zm364,-89c168,-47 269,-158 317,-350c15,-61 19,-111 19,-265c-1,-270 -29,-378 -129,-483c-95,-101 -153,-117 -407,-117c-212,0 -242,6 -260,53c-10,26 -12,1084 -2,1121c4,15 21,30 47,42c62,28 312,27 415,-1z"/>
   <path fill="#ffffff" id="svg_13" d="m2443,4733c4,-1908 0,-1790 61,-2031c138,-541 497,-1012 987,-1295c365,-210 769,-310 1189,-294c570,22 1084,247 1480,646c311,314 504,700 577,1151c15,95 17,269 20,1838l4,1732l-2161,0l-2161,0l4,-1747zm2137,862l0,-855l-1055,0l-1055,0l0,855l0,855l1055,0l1055,0l0,-855zm2137,-907l-3,-1763l-22,-99c-47,-215 -96,-356 -184,-531c-102,-204 -229,-375 -404,-545c-180,-175 -334,-282 -568,-396c-249,-122 -520,-191 -818,-210l-108,-7l0,765l0,764l-695,1020l-695,1019l695,3l695,2l0,870l0,870l1055,0l1055,0l-3,-1762zm-2830,-1013l703,-1030l0,-735c0,-460 -4,-730 -9,-725c-6,6 -483,705 -1060,1555l-1050,1545l-1,213l0,212l357,-2l357,-3l703,-1030zm-360,-995c566,-833 1033,-1521 1038,-1529c17,-29 -307,8 -507,59c-754,190 -1351,782 -1528,1515c-50,208 -53,245 -57,890c-4,538 -3,608 10,595c8,-8 478,-697 1044,-1530z"/>
   <path fill="#ffffff" id="svg_14" d="m4784,6238c3,-7 7,-39 10,-72c6,-52 5,-58 -10,-52c-14,5 -16,1 -11,-29c4,-27 2,-35 -9,-35c-13,0 -12,-6 6,-34c19,-32 19,-35 3,-38c-15,-3 -10,-11 24,-49c31,-34 39,-49 31,-57c-8,-8 -1,-16 27,-29c21,-10 49,-28 61,-40c13,-13 29,-23 36,-23c9,0 9,-3 0,-12c-7,-7 -12,-21 -12,-33c0,-12 5,-26 12,-33c18,-18 66,-15 77,5c8,15 12,16 35,4c24,-14 54,-76 42,-88c-3,-4 -14,1 -23,9c-25,21 -139,30 -182,14c-23,-8 -31,-15 -22,-20c8,-5 -2,-15 -31,-31c-24,-12 -48,-32 -53,-43c-6,-11 -16,-26 -22,-33c-27,-34 -62,-109 -72,-158c-6,-30 -10,-56 -8,-58c2,-1 17,1 33,6c16,5 46,12 67,15c31,4 38,2 33,-9c-6,-18 16,-20 45,-5c15,9 19,7 19,-6c0,-14 4,-14 34,4c25,15 37,17 45,9c8,-8 22,0 52,28c27,26 43,35 46,28c3,-7 8,-13 12,-13c11,0 51,110 51,138c0,11 5,24 10,27c6,3 10,-3 10,-14c0,-26 73,-228 106,-292c41,-83 161,-189 247,-220c43,-15 45,-21 14,-42c-18,-12 -50,-15 -133,-14c-118,2 -112,-1 -98,60c4,16 1,33 -6,42c-15,18 -51,20 -68,3c-18,-18 -15,-66 5,-77c14,-7 15,-12 5,-24c-7,-8 -24,-17 -37,-20c-22,-4 -25,-1 -26,27c0,31 0,31 -10,6c-13,-32 -56,-78 -91,-96c-36,-19 -78,-18 -78,1c0,11 -12,15 -45,15c-31,0 -43,4 -40,13c2,6 -16,25 -42,40c-35,22 -43,31 -33,37c12,7 10,13 -8,33c-17,18 -20,26 -10,30c9,3 6,11 -11,31c-24,26 -24,26 -3,26c12,0 22,1 22,3c0,1 -11,29 -25,62c-13,33 -25,66 -25,73c0,20 67,14 118,-12c26,-13 52,-21 58,-19c21,7 102,-38 137,-76c20,-22 38,-34 40,-28c2,7 9,-5 16,-26c7,-21 10,-44 7,-52c-3,-8 -2,-16 2,-19c15,-9 12,63 -4,104c-12,29 -19,38 -25,28c-6,-10 -19,-3 -51,28c-32,30 -57,44 -98,53c-30,7 -71,20 -90,29c-32,15 -115,20 -127,8c-4,-4 13,-65 35,-123c2,-7 -3,-13 -12,-13c-20,0 -20,-10 0,-38c8,-12 10,-22 5,-22c-18,0 -12,-22 11,-47c12,-13 16,-23 10,-23c-25,0 -10,-20 40,-50c38,-24 48,-34 37,-40c-10,-7 -7,-11 14,-19c16,-6 40,-11 53,-11c14,0 22,-4 19,-10c-3,-5 1,-10 9,-10c26,0 18,-13 -26,-45c-82,-59 -81,-59 -160,-40c-19,5 -32,1 -48,-15c-20,-20 -20,-23 -7,-43c11,-16 24,-21 49,-20l34,2l-28,-56c-15,-31 -28,-68 -28,-82c0,-15 -8,-31 -19,-38c-43,-27 -106,-202 -67,-187c9,4 15,-9 19,-47c4,-33 14,-59 27,-71c11,-10 20,-22 20,-26c0,-15 96,-111 130,-131c36,-22 55,-27 46,-13c-3,4 3,37 11,72c9,35 18,59 21,52c7,-23 21,-12 28,23c3,20 10,32 17,28c7,-4 8,8 4,35c-4,32 -2,42 9,42c19,0 18,14 -7,61c-19,38 -19,42 -4,53c15,10 10,17 -36,59c-28,25 -72,54 -98,63c-25,10 -48,19 -49,20c-2,1 7,25 20,53c26,57 54,71 43,21c-13,-60 16,-86 66,-60c28,15 23,45 -12,81c-16,17 -29,34 -27,39c8,21 93,80 116,80l25,0l-21,-22c-29,-32 -45,-77 -32,-93c6,-7 8,-30 4,-53c-5,-33 -3,-41 11,-44c10,-2 25,-22 34,-48c11,-29 22,-44 32,-42c9,1 21,-10 28,-24c6,-14 17,-24 23,-22c7,3 22,-7 35,-21c18,-21 24,-23 32,-12c7,11 15,10 46,-9c20,-12 45,-31 55,-42c17,-19 18,-18 32,24c23,65 15,235 -13,289c-15,30 -18,44 -9,49c16,10 -42,57 -108,87c-38,18 -61,23 -83,18c-29,-7 -30,-6 -20,14c19,35 209,76 300,64l39,-5l-21,-36c-15,-25 -22,-57 -25,-116c-5,-97 14,-154 85,-258l45,-66l-16,-105c-18,-112 -13,-180 20,-279c13,-41 14,-59 4,-116c-6,-37 -17,-290 -25,-562c-7,-272 -18,-509 -23,-526c-18,-57 -31,-71 -104,-109c-40,-21 -106,-60 -147,-87c-44,-29 -102,-56 -145,-68c-39,-11 -90,-30 -114,-42c-49,-24 -115,-94 -152,-159l-24,-44l24,18c47,33 125,66 215,91l90,24l-38,-33c-20,-18 -59,-40 -85,-50c-59,-22 -122,-65 -156,-105c-22,-26 -56,-113 -56,-142c0,-5 24,19 53,54l52,63l6,-100c5,-67 14,-115 27,-146c26,-60 42,-71 41,-27c0,27 -2,29 -8,13c-16,-39 -42,83 -39,180l3,88l43,12l42,13l0,-27c0,-15 -11,-54 -24,-87c-24,-62 -43,-151 -26,-124c5,8 10,23 10,33c0,10 14,49 30,87c17,38 30,81 30,97c0,24 7,33 35,46c20,9 40,17 45,17c6,0 10,-24 10,-54c0,-67 18,-119 64,-186l36,-52l0,93c-1,89 20,233 38,266c5,8 58,48 118,88l109,73l9,-40c8,-32 5,-54 -15,-112c-31,-95 -31,-200 0,-271c18,-40 21,-60 16,-102c-4,-32 -3,-53 3,-53c20,0 54,110 61,197c8,91 12,104 61,177c28,40 30,51 30,130c0,68 3,88 15,92c8,4 22,0 31,-7c13,-11 15,-25 10,-79c-6,-61 -5,-68 25,-115c54,-85 72,-135 78,-220c6,-74 7,-78 20,-56c7,13 8,20 2,17c-8,-5 -11,12 -11,53c0,68 -24,140 -70,207c-28,39 -30,49 -28,117c3,62 0,78 -16,96c-23,25 -39,27 -60,5c-12,-12 -16,-37 -16,-105c0,-93 -6,-112 -54,-184c-17,-25 -26,-55 -31,-107c-7,-84 -25,-177 -35,-183c-4,-2 -5,17 -2,44c3,33 -1,58 -13,82c-31,58 -31,153 -2,255c24,82 25,94 14,154l-12,64l-17,-26c-39,-59 -392,-262 -525,-301c-65,-19 -101,-43 -124,-82c-11,-16 -19,-25 -19,-19c0,5 13,31 29,56c32,51 86,91 174,131c61,28 176,113 202,150c22,32 18,44 -5,15c-23,-30 -71,-51 -193,-83c-49,-13 -105,-33 -124,-45c-20,-11 -38,-19 -41,-16c-8,9 60,91 98,118c19,14 64,34 100,44c85,23 141,47 193,82c23,16 79,48 123,71c45,23 90,51 99,61c39,43 46,111 55,540c5,228 14,478 21,555c10,128 10,145 -7,195c-21,61 -25,186 -10,307l9,73l-50,77c-70,108 -87,158 -81,237c7,78 43,153 73,148c44,-7 46,-10 23,-53c-26,-51 -35,-129 -18,-169c17,-41 30,-34 51,26c37,110 92,167 219,227c57,27 79,32 178,37c80,3 115,9 121,19c7,11 10,10 18,-3c5,-9 33,-23 63,-31c29,-8 72,-27 94,-43c23,-16 57,-34 76,-41c20,-6 67,-36 105,-66c38,-30 72,-55 76,-55c3,0 9,-8 13,-17c3,-10 17,-38 31,-63c16,-27 25,-57 23,-75c-4,-45 -21,-33 -34,26c-13,58 -31,75 -55,53c-15,-13 -16,-12 -12,8c3,16 -7,36 -32,65c-38,45 -91,69 -131,59c-20,-5 -24,-3 -24,17c0,40 -39,65 -135,88c-117,28 -266,24 -338,-8c-108,-49 -206,-182 -193,-261c12,-76 84,-108 125,-56c30,38 27,88 -10,157l-31,59l23,24c21,23 23,23 42,6c31,-28 65,-94 73,-139c12,-79 54,-40 54,50c0,28 -11,61 -30,96c-17,30 -29,55 -28,57c2,1 19,5 39,9c36,7 36,6 59,-47c17,-38 24,-73 24,-123c1,-75 -17,-124 -87,-229c-28,-44 -32,-57 -31,-115c0,-36 5,-91 10,-122c9,-48 7,-71 -12,-150c-21,-86 -23,-116 -23,-354c0,-143 4,-411 8,-595c7,-311 9,-338 29,-375c29,-58 98,-93 226,-115c55,-10 128,-25 161,-34c49,-13 115,-22 80,-11c-83,27 -195,55 -253,64c-75,11 -155,45 -184,77c-9,11 -21,37 -26,59c-6,22 -16,293 -23,602l-12,562l22,75c30,102 35,168 18,248c-18,85 -10,129 36,199c65,98 80,143 75,223c-3,41 -14,91 -26,119l-21,47l82,0c88,0 198,-22 234,-46c13,-8 23,-24 23,-35c0,-16 -3,-18 -19,-9c-38,20 -86,12 -129,-22c-50,-40 -96,-100 -82,-108c6,-4 6,-18 0,-41c-18,-60 15,-250 52,-302l20,-28l18,28c25,40 59,68 84,68c12,0 25,9 31,23c5,12 15,20 22,18c7,-3 17,10 23,29c7,21 16,32 24,29c9,-4 15,10 20,45c5,35 11,51 22,51c15,0 11,35 -9,75c-7,13 -6,20 2,23c17,6 14,17 -14,50c-14,17 -22,32 -18,35c19,10 75,-16 108,-50c39,-40 45,-68 16,-76c-25,-6 -53,-50 -45,-71c3,-9 18,-19 32,-23c30,-7 62,25 62,63c0,34 19,39 31,7c25,-66 23,-78 -14,-91c-19,-7 -51,-25 -70,-40c-19,-15 -43,-32 -53,-38c-16,-9 -17,-14 -6,-27c11,-12 9,-23 -10,-63c-17,-34 -20,-48 -11,-51c9,-3 11,-17 6,-45c-4,-29 -3,-39 5,-34c7,4 12,-6 14,-26c2,-24 7,-32 19,-30c14,2 18,-10 24,-67l7,-70l46,24c48,24 152,117 152,135c0,5 7,10 15,10c9,0 18,20 27,60c10,50 14,57 26,47c13,-10 14,-5 10,39c-3,28 -13,62 -23,75l-17,24l7,-25c14,-51 17,-80 7,-80c-5,0 -13,-20 -16,-44c-4,-25 -18,-56 -32,-73c-88,-100 -113,-125 -143,-143c-18,-12 -35,-19 -37,-18c-2,2 -9,34 -16,71c-11,57 -15,66 -30,61c-16,-5 -17,-2 -8,20c8,23 7,26 -10,26c-24,0 -24,3 -5,41c14,26 14,30 0,35c-13,5 -12,12 9,50c13,24 20,46 15,49c-17,11 -9,23 26,39c20,10 33,21 30,26c-6,9 66,40 96,40c28,0 75,-26 93,-52c13,-19 16,-19 16,-5c0,9 -18,30 -40,45c-32,22 -39,33 -40,60c0,18 -7,49 -15,69c-19,45 -19,43 9,43c35,0 52,25 38,55c-13,28 -58,34 -91,13c-17,-10 -28,-5 -78,32c-32,24 -60,46 -63,48c-3,3 1,7 8,9c7,3 18,10 25,17c7,7 29,18 50,25c40,14 53,26 37,36c-6,4 10,26 37,50c35,32 43,44 30,45c-17,0 -17,2 4,31c16,22 19,33 10,38c-9,6 -9,15 -1,35c14,37 13,38 -12,31c-18,-6 -20,-4 -14,11c17,41 24,119 12,126c-24,16 -73,3 -146,-40c-43,-26 -80,-42 -93,-42c-8,0 -30,-20 -48,-45c-19,-24 -39,-43 -46,-40c-7,2 -17,-11 -23,-33c-12,-44 -12,-70 1,-97c7,-17 8,-16 7,10c-2,55 2,86 11,81c5,-3 20,12 35,34c26,40 96,92 126,94c8,1 36,16 62,34c28,19 59,32 77,32c31,0 31,0 25,-42c-4,-24 -11,-53 -15,-66c-13,-35 -11,-41 11,-35c24,6 25,0 3,-33c-12,-19 -13,-28 -4,-33c8,-6 6,-15 -9,-34c-20,-25 -20,-27 -3,-27c14,0 8,-9 -22,-38c-22,-20 -40,-44 -40,-52c0,-10 -13,-17 -40,-20c-31,-4 -39,-9 -37,-22c2,-14 -4,-18 -28,-18c-45,0 -98,26 -136,66c-20,21 -34,29 -34,21c0,-13 -5,-13 -42,0c-57,19 -62,26 -38,48c36,33 20,85 -26,85c-33,0 -47,-24 -40,-70l6,-40l-89,0c-49,0 -95,-2 -103,-5c-7,-3 -29,6 -47,19l-33,25l33,14c48,20 188,122 222,160c49,55 94,148 131,269c20,64 40,119 45,122c4,3 11,-16 14,-42c5,-38 37,-123 53,-141c2,-2 10,1 17,7c10,9 21,4 47,-23c33,-34 60,-45 60,-25c0,6 14,3 32,-6c20,-11 33,-13 36,-6c2,6 17,8 38,5c24,-4 34,-2 34,7c0,10 17,11 66,7l66,-5l-7,37c-3,20 -13,48 -21,64c-8,15 -21,40 -29,55c-8,16 -24,37 -35,47c-11,10 -20,24 -20,31c0,8 -23,25 -52,40c-36,18 -47,28 -38,34c18,11 -66,34 -89,25c-9,-4 -33,-8 -54,-10c-21,-1 -52,-12 -68,-24l-29,-22l0,30c0,50 20,81 51,81c15,0 29,-7 33,-15c7,-20 60,-19 80,1c22,21 20,40 -6,58c-18,13 -19,16 -5,16c9,0 27,10 39,23c13,12 40,30 62,40c29,13 37,20 28,29c-8,8 0,23 29,57c31,35 37,47 25,49c-14,3 -14,6 0,35c12,22 13,32 5,35c-7,2 -9,16 -5,38c5,30 4,33 -11,27c-16,-6 -17,0 -13,65l5,72l-31,0c-19,0 -52,-13 -82,-32c-51,-34 -82,-52 -125,-74c-15,-8 -37,-34 -50,-59c-13,-25 -29,-43 -36,-41c-6,3 -14,-2 -17,-10c-9,-24 -7,-102 3,-108c5,-3 6,15 3,41c-4,40 -3,45 12,40c10,-4 16,-1 16,9c0,34 89,133 125,138c8,1 31,16 52,32c46,37 76,54 97,54c19,0 22,-64 7,-118c-9,-28 -7,-32 10,-32c23,0 25,-17 2,-42c-15,-17 -15,-18 6,-18l22,0l-21,-30c-19,-27 -20,-31 -5,-36c14,-6 9,-15 -26,-50c-24,-24 -38,-44 -31,-44c29,0 8,-19 -28,-25c-30,-5 -40,-11 -40,-26c0,-16 -7,-19 -43,-19c-61,0 -129,38 -144,81l-12,34l0,-31c-1,-16 4,-35 11,-42c7,-7 8,-12 3,-12c-20,0 -36,18 -44,46c-4,16 -20,36 -35,44c-26,14 -28,14 -47,-9c-10,-12 -16,-27 -13,-32c3,-5 3,-18 -1,-28c-6,-19 -7,-19 -52,1c-40,18 -57,19 -142,13c-53,-4 -108,-13 -123,-21l-27,-14l30,-45c16,-24 34,-47 39,-50c6,-4 4,-14 -3,-26c-10,-17 -9,-23 8,-35c11,-8 19,-22 17,-30c-2,-8 9,-19 23,-26c14,-6 25,-19 25,-29c0,-11 14,-21 45,-30c32,-10 44,-18 40,-28c-4,-11 3,-13 39,-8c27,4 46,2 48,-4c2,-7 12,-7 31,0c27,10 28,10 22,-11c-32,-105 -119,-284 -143,-293c-22,-8 -28,3 -14,25c17,28 15,54 -7,74c-18,17 -49,13 -63,-8c-14,-21 -8,-56 12,-68c22,-14 26,-39 9,-69c-13,-26 -112,-90 -172,-113l-46,-17l-105,50c-80,39 -109,58 -121,80c-20,39 -19,46 6,70c15,13 20,28 17,52c-2,28 -8,35 -29,37c-42,5 -62,-23 -54,-76c13,-86 -31,-18 -97,153c-56,141 -55,139 -23,131c16,-4 31,-3 34,3c4,6 20,7 44,1c30,-6 39,-5 46,9c5,9 30,22 55,29c33,8 44,16 40,26c-4,10 6,21 28,32c20,11 28,19 19,22c-9,3 -5,12 15,28c23,19 26,25 15,33c-11,7 -7,17 20,52c19,24 37,46 42,47c4,2 7,8 7,13c0,20 -70,38 -169,44c-88,5 -108,3 -147,-14c-27,-12 -44,-16 -44,-9c0,18 -50,-32 -80,-81c-28,-45 -33,-45 -44,0c-4,18 -1,31 10,39c8,7 13,19 10,26c-3,7 0,16 6,20c6,4 8,3 5,-3c-11,-17 46,-13 66,5c23,21 22,59 -3,72c-30,16 -57,4 -69,-31c-6,-16 -19,-41 -30,-55c-18,-23 -18,-28 -5,-82c27,-106 31,-117 61,-177c17,-33 46,-103 64,-154c46,-129 100,-235 122,-239c11,-2 17,3 17,17c0,11 5,23 10,26c6,4 10,-8 10,-28c0,-51 29,-79 137,-132l97,-47l-28,-15c-18,-9 -40,-13 -61,-9c-49,10 -144,77 -216,154c-56,59 -69,80 -101,167c-20,55 -46,134 -59,175c-12,41 -25,77 -29,80c-4,3 -10,26 -14,52c-8,52 -35,93 -68,104c-21,6 -21,7 -4,20c11,7 16,20 13,29c-9,22 -5,31 13,27c8,-2 12,-1 9,3c-4,3 4,17 17,30c13,13 24,34 23,47c-1,22 -1,22 -10,-3c-21,-57 -189,-111 -189,-60c0,15 -10,21 -41,26c-31,5 -39,11 -34,23c3,10 -7,29 -30,52c-30,31 -34,38 -20,44c15,5 14,9 -5,33c-19,24 -20,28 -6,31c14,3 14,6 1,32c-19,38 -19,38 10,32c24,-4 25,-3 15,22c-5,15 -10,50 -10,77c0,40 3,49 18,49c21,0 67,-28 106,-64c15,-15 31,-25 34,-22c6,6 69,-38 90,-64c7,-8 22,-33 32,-55c11,-22 20,-35 20,-30c0,6 5,2 11,-8c6,-10 8,-32 4,-50c-5,-24 -4,-28 4,-17c20,28 9,123 -12,114c-7,-2 -23,16 -36,41c-15,28 -37,52 -55,61c-31,14 -76,41 -137,81c-37,25 -111,32 -105,11zm778,-400l28,-10l-33,-45c-17,-25 -41,-51 -51,-59c-18,-12 -18,-14 -3,-20c24,-9 21,-19 -10,-34c-16,-7 -23,-15 -15,-17c20,-8 14,-20 -13,-27c-17,-4 -25,-12 -23,-23c2,-13 -8,-19 -44,-26c-30,-6 -48,-14 -48,-23c0,-17 -10,-17 -46,-4c-18,7 -30,7 -40,0c-27,-24 -115,73 -114,126c1,20 61,128 70,124c3,-1 24,9 48,23c38,21 56,24 155,25c62,1 124,-4 139,-10zm468,-26c17,-13 35,-20 40,-17c5,3 23,-23 40,-57c29,-58 31,-66 20,-103c-22,-71 -82,-134 -100,-105c-6,10 -15,10 -40,1c-41,-14 -40,-14 -34,3c6,14 -4,19 -62,31c-24,5 -31,10 -27,24c3,14 -3,20 -23,25c-20,5 -24,10 -15,19c8,8 4,17 -16,34c-22,18 -24,22 -10,23c21,0 22,13 1,31c-9,7 -28,31 -44,54c-26,37 -27,42 -12,52c11,8 60,11 134,10c104,-2 121,-5 148,-25zm196,-42c-1,-19 -11,-48 -21,-64c-14,-21 -20,-46 -19,-88c1,-42 -3,-58 -12,-58c-8,0 -29,-50 -54,-128c-40,-128 -87,-221 -138,-275c-81,-86 -386,-254 -436,-241c-14,3 -26,10 -26,15c0,12 74,53 182,100c111,47 188,107 188,145c0,22 2,23 21,12c18,-12 24,-9 48,19c28,34 115,223 132,290c6,21 21,61 34,88c25,52 52,183 42,207c-4,11 3,14 28,14c31,-1 33,-3 31,-36zm-1137,-165c26,-30 31,-44 31,-84c0,-33 -5,-51 -14,-54c-8,-3 -16,-21 -18,-39c-2,-26 -8,-33 -24,-33c-12,0 -34,-15 -49,-33c-25,-30 -29,-32 -38,-17c-8,15 -12,14 -37,-10c-26,-25 -29,-26 -38,-8c-9,14 -13,16 -23,6c-18,-18 -32,-16 -25,3c4,11 2,15 -8,11c-31,-12 -136,-19 -136,-10c0,22 25,80 47,109c12,17 20,34 16,37c-4,4 6,21 22,37c16,17 25,30 20,30c-12,0 55,49 77,56c10,3 18,12 18,20c0,11 16,14 74,14c72,0 75,-1 105,-35zm1316,25c-3,-5 19,-21 50,-36c30,-15 55,-32 55,-39c0,-6 11,-22 25,-35c13,-12 22,-26 20,-31c-3,-4 6,-21 20,-37c26,-31 45,-73 45,-99c0,-13 -10,-15 -71,-9c-63,7 -71,6 -66,-8c8,-20 2,-20 -28,0c-24,16 -25,15 -25,-6l0,-21l-31,22c-24,16 -33,19 -39,9c-5,-9 -18,-2 -47,24c-29,25 -43,32 -51,24c-8,-8 -14,1 -21,30c-6,22 -16,42 -21,44c-18,6 -23,75 -10,109c19,46 58,65 135,67c40,1 64,-2 60,-8zm-1025,-703c104,-4 189,-26 236,-61c19,-15 19,-15 -4,-38c-22,-22 -23,-22 -50,-5c-79,52 -182,68 -308,48c-119,-18 -174,-40 -191,-76c-13,-27 -19,-30 -47,-27c-25,3 -43,-4 -77,-30c-24,-18 -48,-44 -54,-56c-5,-12 -18,-22 -27,-22c-18,0 -50,-53 -62,-102c-7,-32 -26,-38 -26,-8c0,23 18,65 43,103c11,15 17,37 14,47c-3,14 1,21 17,26c11,3 51,26 87,50c37,24 83,51 102,59c20,8 53,26 73,40c21,14 57,31 81,36c27,7 45,18 49,31c5,17 8,18 22,5c12,-10 50,-16 122,-20zm-180,-188c39,-19 58,-34 51,-38c-9,-6 -8,-11 4,-21c22,-18 44,-62 44,-86c-1,-10 3,-37 7,-58c5,-29 4,-37 -4,-32c-9,5 -9,0 -2,-19c11,-29 13,-114 4,-138c-5,-13 -10,-13 -38,4c-18,10 -43,30 -56,44c-27,28 -40,32 -40,10c0,-23 -15,-18 -30,10c-10,18 -17,22 -26,15c-9,-8 -15,-2 -23,21c-9,26 -13,29 -25,20c-12,-10 -17,-5 -26,31c-17,66 -18,68 -34,62c-13,-5 -14,0 -6,26c5,18 12,35 15,38c2,3 -3,10 -11,17c-15,10 -15,14 0,43c19,37 81,82 112,82c12,0 50,-14 84,-31zm1006,12c49,-22 91,-70 72,-83c-10,-6 -9,-14 5,-39c20,-36 22,-50 5,-46c-9,1 -14,-15 -16,-50c-3,-45 -6,-53 -23,-53c-14,0 -19,-7 -19,-26c0,-18 -4,-25 -14,-21c-9,4 -19,-5 -26,-24c-12,-27 -14,-28 -26,-12c-13,17 -15,17 -26,-2c-6,-11 -28,-37 -49,-59l-36,-40l-17,32c-9,18 -16,55 -16,87c0,33 -4,55 -11,55c-7,0 -10,15 -7,40c2,22 0,40 -5,40c-10,0 -3,33 15,77c6,15 12,36 14,47c1,10 9,23 19,29c9,5 25,17 35,27c44,44 67,48 126,21zm-517,-90c32,-77 16,-131 -40,-131c-35,0 -59,32 -59,78c0,33 21,95 42,119c15,19 28,4 57,-66zm-814,-168c19,-9 35,-23 35,-30c0,-7 14,-19 30,-28c31,-16 38,-31 19,-37c-6,-2 -3,-21 10,-51c18,-41 18,-47 5,-47c-11,0 -14,-6 -10,-16c3,-9 9,-27 12,-41c6,-22 4,-24 -13,-19c-17,6 -19,2 -15,-26c4,-28 3,-31 -9,-21c-13,10 -18,1 -33,-58c-10,-38 -20,-69 -24,-69c-18,0 -74,50 -92,82c-12,21 -25,36 -30,33c-4,-3 -15,11 -24,29c-9,19 -21,36 -27,38c-5,2 -13,29 -16,61c-3,31 -10,57 -14,57c-28,0 35,129 71,147c35,18 83,16 125,-4zm323,-2243c-13,-61 -18,-115 -15,-152c3,-32 2,-58 -3,-58c-17,0 -61,123 -67,188l-5,67l53,26c30,15 55,26 56,25c1,0 -8,-44 -19,-96z"/>
   <path fill="#ffffff" id="svg_15" d="m5809,2490c-34,-34 -33,-51 8,-113c25,-36 26,-41 20,-150c-2,-61 -8,-121 -11,-132c-3,-11 1,-4 10,15c13,25 18,64 18,140c1,99 -1,107 -26,145c-33,48 -35,79 -7,99c45,31 76,-4 78,-90c1,-23 12,-62 26,-88c20,-38 24,-55 19,-89c-7,-41 -7,-42 13,-24c31,27 46,93 44,193c-2,116 6,126 80,95c53,-22 115,-26 159,-10c18,6 10,7 -27,4c-37,-4 -66,0 -105,15c-106,40 -134,17 -124,-102c4,-49 2,-91 -8,-128c-11,-45 -14,-49 -15,-23c-1,17 -12,55 -26,85c-16,34 -25,71 -25,104c0,84 -47,109 -101,54z"/>
   <path fill="#ffffff" id="svg_16" d="m9032,4738c-11,-18 -25,-51 -31,-73c-6,-22 -17,-49 -25,-60c-9,-11 -16,-25 -16,-32c0,-7 -11,-36 -24,-65c-13,-29 -38,-87 -55,-128c-18,-41 -38,-86 -45,-100c-7,-14 -19,-43 -26,-65c-7,-22 -16,-44 -20,-50c-4,-5 -21,-44 -38,-87c-17,-42 -40,-98 -52,-125c-45,-101 -79,-181 -109,-253c-83,-208 -163,-376 -187,-396c-14,-13 -51,-28 -82,-35c-86,-17 -84,-16 -80,-51l3,-33l65,1c75,2 322,2 424,0c62,-1 69,1 77,21c11,31 -9,51 -61,58c-104,13 -144,30 -155,65c-3,10 17,80 45,157c81,221 83,224 110,235c14,5 119,8 247,6c207,-3 224,-4 242,-23c17,-18 101,-222 101,-247c0,-5 9,-29 21,-54c11,-25 19,-55 17,-66c-5,-34 -48,-57 -128,-70c-79,-12 -101,-26 -93,-59c8,-29 31,-31 222,-21c111,6 231,6 333,0c167,-11 188,-7 188,33c0,23 -22,34 -80,44c-25,4 -54,12 -65,17c-34,17 -74,69 -86,111c-6,22 -19,56 -30,76c-10,20 -19,39 -19,44c0,7 -74,186 -120,292c-10,22 -32,76 -48,120c-17,44 -47,118 -67,165c-21,47 -42,101 -48,120c-6,19 -14,37 -18,40c-4,3 -14,28 -23,55c-9,28 -23,64 -31,80c-30,63 -125,297 -125,307c0,6 -9,26 -21,44c-27,45 -60,46 -87,2zm63,-598c31,-85 66,-173 76,-196c10,-23 19,-55 19,-73l0,-31l-191,2c-158,3 -194,6 -201,18c-7,11 3,49 35,130c25,63 52,129 61,145c9,17 16,36 16,43c0,7 11,37 24,65c13,29 31,74 41,102l18,49l23,-49c12,-28 48,-120 79,-205z"/>
   <path fill="#ffffff" id="svg_17" d="m12556,4716c-14,-30 -26,-57 -26,-60c0,-4 -9,-25 -19,-49c-10,-23 -33,-76 -51,-117c-18,-41 -41,-93 -51,-116c-10,-23 -19,-44 -19,-48c0,-3 -8,-25 -19,-49c-10,-23 -33,-76 -51,-117c-17,-41 -38,-90 -46,-107c-8,-18 -21,-51 -29,-73c-8,-22 -21,-51 -30,-63c-8,-12 -15,-28 -15,-36c0,-7 -9,-32 -20,-55c-10,-23 -33,-75 -51,-116c-17,-41 -42,-99 -55,-128c-13,-29 -24,-57 -24,-63c0,-5 -8,-27 -19,-47c-10,-20 -31,-64 -47,-96c-35,-72 -64,-95 -140,-110c-63,-13 -86,-34 -68,-63c12,-19 7,-19 244,-13c58,1 151,-1 206,-5c97,-7 103,-6 113,14c20,37 -1,58 -66,66c-72,9 -116,26 -135,54c-14,20 -12,33 32,159c61,178 83,228 110,242c15,8 90,10 245,8l225,-3l23,-25c24,-25 137,-323 137,-360c0,-31 -46,-57 -123,-71c-79,-13 -97,-23 -97,-49c0,-39 20,-42 211,-32c118,6 239,6 341,0c170,-10 192,-6 186,35c-4,25 -18,32 -92,47c-40,8 -66,20 -83,38c-21,23 -94,191 -210,482c-15,36 -36,88 -49,115c-12,28 -36,86 -53,130c-18,44 -39,94 -47,110c-8,17 -18,44 -23,60c-5,17 -39,100 -76,185c-36,85 -71,171 -77,190c-5,19 -14,40 -18,45c-5,6 -16,33 -25,60c-21,61 -41,85 -71,85c-18,0 -28,-12 -48,-54zm7,-398c9,-21 17,-43 17,-50c0,-6 8,-30 18,-52c10,-23 24,-57 31,-76c7,-19 32,-88 56,-152c25,-65 42,-124 39,-133c-5,-13 -34,-15 -188,-15c-99,0 -188,5 -196,10c-13,8 -13,16 1,67c9,32 42,119 74,193c31,74 63,153 70,175c7,22 21,56 31,75c16,31 19,33 24,15c3,-11 14,-37 23,-57z"/>
   <path fill="#ffffff" id="svg_18" d="m22355,4762c-11,-7 -55,-92 -55,-104c0,-8 -96,-231 -131,-304c-10,-23 -19,-45 -19,-49c0,-5 -9,-27 -19,-49c-11,-23 -45,-102 -76,-176c-31,-74 -65,-153 -75,-176c-11,-23 -20,-47 -20,-54c0,-7 -9,-29 -19,-49c-11,-20 -34,-70 -51,-111c-17,-41 -43,-102 -57,-135c-14,-33 -33,-77 -42,-99c-59,-143 -92,-178 -177,-191c-65,-9 -74,-14 -74,-40c0,-42 20,-47 142,-38c62,4 122,7 133,7c285,-16 283,-16 295,5c18,34 -2,57 -56,65c-128,17 -159,38 -150,100c11,69 113,329 138,349c20,17 42,18 249,15c225,-3 228,-3 253,-27c14,-14 26,-29 26,-34c0,-5 25,-77 56,-159c30,-83 54,-159 52,-171c-5,-32 -49,-57 -123,-69c-77,-12 -95,-21 -95,-48c0,-39 20,-42 211,-32c118,6 239,6 341,0c169,-11 192,-7 186,35c-4,25 -18,32 -90,47c-89,18 -95,25 -193,265c-31,77 -63,154 -70,170c-8,17 -31,75 -53,130c-22,55 -65,161 -97,235c-31,74 -61,148 -66,165c-5,16 -15,43 -23,60c-34,73 -126,296 -126,305c0,5 -8,24 -18,42c-10,18 -22,47 -26,63c-13,52 -51,79 -81,57zm-32,-414c8,-24 18,-54 22,-68c4,-14 13,-38 20,-55c6,-16 21,-55 33,-85c11,-30 37,-97 56,-147c20,-51 36,-106 36,-123l0,-30l-189,0c-200,0 -201,0 -201,48c0,15 120,318 171,430c10,23 19,49 19,57c0,29 18,14 33,-27z"/>
   <path fill="#ffffff" id="svg_19" d="m25831,4728c-11,-24 -34,-77 -51,-118c-17,-41 -43,-102 -57,-135c-27,-62 -45,-105 -80,-190c-24,-58 -77,-183 -103,-240c-9,-22 -21,-51 -25,-64c-4,-14 -16,-38 -26,-55c-11,-17 -19,-37 -19,-45c0,-8 -9,-32 -19,-55c-35,-73 -131,-296 -131,-304c0,-4 -8,-25 -19,-47c-82,-177 -94,-190 -187,-209c-63,-13 -86,-34 -68,-63c12,-19 13,-19 239,-13c55,1 150,-1 211,-5c110,-7 111,-7 117,15c10,40 -8,57 -70,65c-72,9 -116,26 -135,54c-14,20 -12,32 27,144c69,199 85,237 110,253c20,13 59,15 249,12l226,-3l24,-25c13,-14 33,-52 44,-85c11,-33 36,-105 56,-159c20,-55 36,-107 36,-117c0,-36 -56,-63 -157,-74c-46,-6 -63,-16 -63,-39c0,-46 15,-48 214,-38c123,7 237,7 340,0c167,-11 190,-7 184,35c-4,25 -18,32 -93,47c-78,16 -95,36 -157,185c-27,66 -63,152 -80,190c-16,39 -35,89 -43,113c-7,24 -18,48 -23,55c-5,7 -15,30 -22,52c-7,22 -16,45 -20,50c-3,6 -23,53 -44,105c-21,52 -47,113 -57,136c-10,23 -19,45 -19,49c0,5 -8,27 -19,49c-29,63 -112,266 -127,311c-8,22 -19,48 -24,58c-6,9 -17,38 -26,63c-32,95 -79,112 -113,42zm-6,-393c7,-11 20,-46 29,-77c9,-31 21,-60 26,-63c6,-3 10,-13 10,-22c0,-9 25,-80 55,-158c30,-79 52,-150 49,-159c-5,-14 -31,-16 -189,-16c-216,0 -217,0 -193,83c16,52 93,245 129,323c10,23 19,47 19,53c0,6 10,31 22,54c17,33 23,38 26,22c2,-10 10,-28 17,-40z"/>
   <path fill="#ffffff" id="svg_20" d="m20570,4739c-41,-9 -89,-18 -105,-18c-17,-1 -47,-10 -68,-21c-20,-11 -43,-20 -51,-20c-20,0 -123,-57 -181,-100c-144,-108 -233,-286 -254,-510c-33,-354 124,-658 417,-809c103,-52 200,-86 279,-96c238,-32 593,-10 718,44l50,21l24,133c14,72 27,151 29,175c4,42 4,42 -29,42c-31,-1 -39,-8 -89,-81c-130,-190 -241,-249 -465,-249c-189,0 -305,41 -411,145c-98,97 -163,228 -195,395c-19,101 -17,359 5,455c26,117 74,211 145,284c33,33 67,61 76,61c8,0 15,4 15,9c0,5 39,21 88,37c78,25 101,28 228,28c85,1 147,-3 155,-10c8,-6 34,-17 59,-24c94,-30 199,-123 253,-225c33,-62 70,-85 83,-50c7,17 -13,162 -24,180c-4,6 -7,12 -8,15c0,3 -4,23 -8,45c-4,22 -9,50 -11,61c-7,35 -53,56 -170,80c-143,29 -435,31 -555,3z"/>
   <path fill="#ffffff" id="svg_21" d="m16630,4739c-107,-7 -472,-9 -720,-5l-75,1l-3,-35l-3,-35l83,-12c96,-13 156,-38 164,-68c2,-11 3,-299 2,-639l-3,-620l-31,-18c-28,-16 -69,-26 -177,-43c-36,-6 -38,-8 -35,-38l3,-32l305,4c168,2 411,-2 540,-8c129,-6 275,-13 324,-15c61,-3 100,0 122,9c34,14 37,23 60,160c4,22 10,45 15,50c8,11 29,125 29,163c0,18 -6,22 -30,22c-25,0 -36,-9 -74,-67c-64,-97 -148,-178 -225,-216l-66,-32l-205,0c-186,0 -208,2 -233,19c-16,11 -33,30 -38,43c-13,35 -12,573 2,612l11,31l186,-2l186,-3l19,-32c10,-18 28,-81 40,-140l22,-108l30,0l30,0l0,310l0,310l-22,3c-30,4 -48,-28 -67,-123c-9,-44 -25,-91 -35,-105l-18,-25l-184,0l-183,0l-13,25c-17,34 -18,478 -1,515c7,15 29,35 50,46c33,17 60,19 226,19l190,0l48,-32c34,-23 68,-62 114,-132c37,-54 74,-102 83,-108c23,-12 57,-1 57,20c0,41 -64,309 -78,325c-13,15 -33,17 -156,15c-78,0 -197,-5 -266,-9z"/>
   <path fill="#ffffff" id="svg_22" d="m17945,4739c-100,-13 -269,-15 -422,-5l-133,8l-11,-26c-17,-37 1,-52 73,-60c74,-9 135,-32 148,-57c6,-11 10,-256 10,-637c0,-701 7,-647 -83,-676c-26,-9 -65,-16 -87,-16c-55,0 -88,-38 -59,-67c8,-8 87,-10 273,-6c143,2 303,1 354,-4c80,-8 95,-7 107,7c32,36 12,59 -61,69c-84,12 -141,29 -159,47c-13,13 -15,55 -15,279c0,145 3,270 6,279c8,22 121,22 151,1c12,-8 39,-61 64,-122c118,-298 187,-403 324,-495c82,-55 163,-69 371,-66l159,3l0,25c0,22 -6,25 -65,37c-162,33 -308,155 -463,388c-47,71 -147,262 -147,281c0,2 32,20 71,40c46,23 96,59 139,102c60,59 71,76 95,147c49,144 24,297 -65,398c-41,47 -137,101 -215,121c-65,18 -240,20 -360,5zm216,-116c25,-11 58,-31 73,-44c65,-56 106,-173 106,-300c0,-142 -51,-235 -151,-279c-68,-29 -221,-31 -277,-3l-37,18l-3,273c-1,150 1,287 6,305c12,48 42,59 147,54c63,-2 104,-9 136,-24z"/>
   <path fill="#ffffff" id="svg_23" d="m13612,4728c-16,-16 -15,-43 1,-56c6,-5 35,-13 64,-17c67,-9 134,-42 152,-77c14,-23 12,-58 -18,-330c-18,-166 -41,-375 -52,-463c-10,-88 -23,-212 -29,-275c-6,-63 -12,-122 -13,-131c-8,-45 -69,-98 -122,-106c-72,-10 -84,-15 -90,-34c-4,-12 -2,-26 4,-32c15,-15 559,-16 571,-2c19,23 -1,54 -39,60c-125,21 -191,61 -191,117c0,28 49,516 70,693c5,44 12,122 16,173c4,50 10,92 13,92c4,0 24,-39 45,-87c43,-100 64,-148 94,-213c11,-25 45,-103 76,-175c31,-71 65,-147 76,-167c11,-20 20,-43 20,-50c0,-7 6,-24 13,-38c7,-14 41,-88 76,-165c115,-258 135,-286 195,-271c42,10 59,35 105,147c24,57 54,127 67,156c13,28 24,56 24,62c0,6 9,30 19,53c24,51 163,390 178,433c12,31 144,347 168,400l13,30l1,-35c1,-19 12,-215 26,-435c31,-494 32,-645 8,-667c-35,-31 -83,-48 -132,-48c-49,0 -81,-17 -81,-44c0,-32 22,-34 274,-29c138,3 290,1 339,-4c95,-10 107,-6 107,38c0,29 -19,39 -76,39c-41,0 -111,35 -125,63c-7,12 -23,130 -35,262c-13,132 -30,314 -39,405c-50,514 -53,573 -32,601c21,28 76,50 142,56c59,5 66,8 71,30c12,46 -11,55 -117,45c-53,-5 -144,-6 -209,-1c-138,9 -129,16 -191,-141c-22,-58 -47,-118 -54,-135c-8,-16 -39,-91 -70,-165c-31,-74 -65,-153 -76,-176c-10,-22 -19,-45 -19,-51c0,-6 -11,-35 -24,-64c-13,-30 -47,-110 -76,-179c-29,-69 -61,-143 -71,-166c-11,-22 -19,-46 -19,-53c0,-6 -10,-29 -22,-50l-22,-39l-23,47c-12,25 -23,51 -23,57c0,7 -11,36 -24,65c-12,30 -35,83 -50,119c-15,36 -34,79 -41,95c-7,17 -23,55 -35,85c-12,30 -30,75 -40,100c-28,71 -105,257 -145,350c-20,47 -40,96 -44,110c-5,14 -17,45 -28,70c-11,25 -27,63 -37,85l-17,40l-132,-7c-73,-4 -170,-3 -217,3c-109,11 -114,11 -128,-3z"/>
   <path fill="#ffffff" id="svg_24" d="m19114,4726c-3,-8 -4,-25 -2,-38c3,-20 10,-24 57,-30c75,-9 138,-28 153,-46c10,-12 14,-148 16,-611c2,-328 0,-615 -3,-639c-8,-51 -43,-78 -115,-87c-115,-15 -111,-13 -108,-48l3,-31l358,0c377,-1 386,0 372,43c-6,20 -21,25 -105,35c-57,6 -117,35 -124,59c-3,12 -6,300 -6,640l0,618l25,23c24,23 109,46 166,46c36,0 55,30 39,61c-11,20 -16,20 -163,12c-188,-10 -215,-10 -405,0c-130,7 -153,6 -158,-7z"/>
   <path fill="#ffffff" id="svg_25" d="m7405,4721l-310,-6l-3,-27c-4,-30 -7,-28 113,-54c44,-9 88,-23 98,-32c16,-14 17,-58 17,-646c0,-347 -4,-636 -8,-642c-14,-21 -67,-42 -127,-49c-80,-10 -97,-20 -93,-53l3,-27l375,0l375,0l3,32c4,36 2,37 -103,48c-33,4 -79,15 -103,25l-42,19l2,258l3,258l150,5c127,5 164,10 245,35c52,16 97,32 100,36c3,3 23,16 45,27c187,95 266,411 152,605c-44,74 -95,118 -186,160c-64,30 -68,31 -231,32c-91,1 -304,-1 -475,-4zm451,-86c16,-8 34,-15 40,-15c22,0 115,-103 139,-152c52,-107 58,-269 15,-379c-37,-95 -98,-140 -211,-159c-71,-11 -198,-13 -223,-4c-14,5 -16,44 -16,335c0,313 1,330 19,348c11,11 37,24 58,30c21,5 47,12 58,15c30,7 89,-2 121,-19z"/>
   <path fill="#ffffff" id="svg_26" d="m9984,4721c-2,-2 -4,-15 -4,-28c0,-16 8,-27 25,-33c14,-5 29,-9 33,-8c29,6 154,-31 170,-50c9,-12 12,-157 12,-644l0,-629l-26,-24c-22,-21 -83,-37 -184,-49c-10,-1 -15,-13 -15,-36l0,-35l70,1c85,2 342,2 445,0l75,-1l0,34l0,35l-89,13c-96,14 -133,31 -141,66c-3,12 -4,243 -3,513l3,491l89,-96c108,-116 359,-382 401,-426c17,-17 73,-78 125,-135c87,-95 160,-174 280,-299c25,-26 74,-78 109,-115c35,-37 78,-78 96,-91c39,-30 80,-32 95,-6c6,13 10,250 10,701c0,771 -3,741 72,760c24,6 50,13 58,15c8,2 31,7 50,10c43,8 53,16 48,46l-3,24l-295,0l-295,0l-3,-24c-5,-29 6,-40 44,-46c66,-9 138,-26 162,-38l27,-12l3,-523c1,-346 -1,-522 -8,-522c-5,0 -10,3 -10,8c0,4 -24,32 -53,63c-28,31 -97,105 -152,165c-55,60 -154,167 -220,239c-66,72 -160,175 -210,230c-82,90 -136,149 -295,319c-30,33 -73,78 -95,99l-40,40l-178,1c-98,1 -180,-1 -183,-3z"/>
   <path fill="#ffffff" id="svg_27" d="m23285,4721c-9,-8 -5,-50 5,-56c5,-3 23,-8 40,-10c68,-8 146,-28 168,-41l22,-14l0,-640l0,-639l-25,-19c-21,-17 -97,-35 -185,-46c-10,-1 -15,-13 -15,-36l0,-35l70,1c88,1 346,1 444,0c60,-1 76,2 85,17c21,33 -4,51 -90,64c-43,6 -84,12 -90,12c-6,1 -23,12 -38,26l-26,24l0,508l0,508l63,-66c34,-37 103,-111 153,-165c51,-55 116,-124 145,-155c82,-85 258,-273 454,-484c278,-299 306,-325 354,-325c11,0 27,10 35,22c14,20 16,105 16,718c0,546 3,700 13,713c11,17 151,60 160,50c3,-2 16,2 31,8c21,10 26,19 24,38l-3,26l-300,0l-300,0l-3,-24c-5,-29 6,-40 44,-46c82,-11 151,-28 171,-41l23,-14l2,-520c2,-286 0,-520 -3,-520c-3,0 -27,24 -53,53c-27,28 -95,102 -151,162c-56,61 -176,191 -266,290c-89,99 -166,182 -169,185c-3,3 -77,84 -165,180c-87,96 -184,201 -216,234l-57,59l-181,1c-100,1 -184,0 -186,-3z"/>
  </g>
 </g>
</svg>