<svg xmlns="http://www.w3.org/2000/svg" width="53.505" height="53.505" viewBox="0 0 53.505 53.505">
  <g id="Grupo_289" data-name="Grupo 289" transform="translate(-1169 -42)">
    <path id="Trazado_2107" data-name="Trazado 2107" d="M47.374,91.714H6.131A6.136,6.136,0,0,1,0,85.584V48.8a6.136,6.136,0,0,1,6.131-6.131H47.374A6.136,6.136,0,0,1,53.505,48.8V85.584A6.136,6.136,0,0,1,47.374,91.714ZM6.131,46.012A2.79,2.79,0,0,0,3.344,48.8V85.584A2.791,2.791,0,0,0,6.131,88.37H47.374a2.791,2.791,0,0,0,2.787-2.787V48.8a2.79,2.79,0,0,0-2.787-2.786Zm0,0" transform="translate(1169 3.791)" fill="#fff"/>
    <path id="Trazado_2108" data-name="Trazado 2108" d="M51.833,174.012H1.672a1.672,1.672,0,1,1,0-3.344H51.833a1.672,1.672,0,1,1,0,3.344Zm0,0" transform="translate(1169 -110.833)" fill="#fff"/>
    <path id="Trazado_2109" data-name="Trazado 2109" d="M108.34,13.376a1.673,1.673,0,0,1-1.672-1.672V1.672a1.672,1.672,0,0,1,3.344,0V11.7A1.673,1.673,0,0,1,108.34,13.376Zm0,0" transform="translate(1073.479 42)" fill="#fff"/>
    <path id="Trazado_2110" data-name="Trazado 2110" d="M375,13.376a1.673,1.673,0,0,1-1.672-1.672V1.672a1.672,1.672,0,1,1,3.344,0V11.7A1.673,1.673,0,0,1,375,13.376Zm0,0" transform="translate(834.682 42)" fill="#fff"/>
  </g>
</svg>
