<svg id="Grupo_150" data-name="Grupo 150" xmlns="http://www.w3.org/2000/svg" width="50.14" height="50.643" viewBox="0 0 50.14 50.643">
  <path id="Trazado_9" data-name="Trazado 9" d="M36.924,52.643l-.121,0a4.049,4.049,0,0,1-2.825-1.261l-7.795-8.16H7.769A5.654,5.654,0,0,1,2,37.7V7.519A5.654,5.654,0,0,1,7.769,2h38.6A5.654,5.654,0,0,1,52.14,7.519V37.7c0,2.439-.859,3.18-2.933,4.964L39.7,51.545A4.043,4.043,0,0,1,36.924,52.643ZM7.769,6.345A1.319,1.319,0,0,0,6.345,7.519V37.7a1.319,1.319,0,0,0,1.424,1.174H28.042l8.891,9.307,9.373-8.753.061-.052a17.313,17.313,0,0,0,1.415-1.286c.006-.06.013-.175.013-.39V7.519a1.319,1.319,0,0,0-1.424-1.174Z" transform="translate(-2 -2)" fill="#fff"/>
</svg>
