<svg xmlns="http://www.w3.org/2000/svg" width="57.523" height="59.023" viewBox="0 0 57.523 59.023">
  <g id="Grupo_166" data-name="Grupo 166" transform="translate(-1287.271 99.349) rotate(-90)">
    <path id="Trazado_2058" data-name="Trazado 2058" d="M52.51,1303.607l-2.326,3.654-5.221.966a3.177,3.177,0,0,0-3.028,3.421c.081,3.282,0,8.749,0,8.749s-.928,3.358,3.028,3.773,5.758.669,5.758.669l1.789,3.613-1.789,4.5s-1.417,3.7,1.789,5.646,6.947,3.865,6.947,3.865,3.672,2.217,5.637-1.239,3.027-4.266,3.027-4.266h4.244l3.149,4.266s2.193,3.571,5.19,1.239a37.534,37.534,0,0,1,6.264-3.865s3.919-2.293,2.384-5.077a41.981,41.981,0,0,1-2.384-5.069l2.384-4.283,5.167-.439s3.505.365,3.319-4.271,0-7.812,0-7.812a3.142,3.142,0,0,0-3.319-3.421,22.1,22.1,0,0,1-5.167-.519l-2.384-4.1,1.447-3.649s2.835-4.446-.479-6.1-7.232-3.746-7.232-3.746-3.048-2.952-5.19,0-3.149,4.5-3.149,4.5H68.121l-3.572-4.5s-1.871-2.667-5.092-.433-6.543,4.179-6.543,4.179-3.541,1.388-2.193,4.528A31.1,31.1,0,0,1,52.51,1303.607Z" fill="none" stroke="#fff" stroke-width="3"/>
    <g id="Elipse_3" data-name="Elipse 3" transform="translate(58 1304)" fill="none" stroke="#fff" stroke-width="3">
      <circle cx="12" cy="12" r="12" stroke="none"/>
      <circle cx="12" cy="12" r="10.5" fill="none"/>
    </g>
  </g>
</svg>
