<svg xmlns="http://www.w3.org/2000/svg" width="50.386" height="50.643" viewBox="0 0 50.386 50.643">
  <path id="Trazado_8" data-name="Trazado 8" d="M48.68,50.707H5.706A3.706,3.706,0,0,1,2,47V24.7A3.706,3.706,0,0,1,3.119,22.05L24.593,1.117A3.706,3.706,0,0,1,29.8,1.15L51.3,22.641a3.706,3.706,0,0,1,1.086,2.621V47A3.706,3.706,0,0,1,48.68,50.707ZM10.072,46.341H44.314a3.706,3.706,0,0,0,3.706-3.706V27.071a3.706,3.706,0,0,0-1.086-2.621L29.761,7.285a3.706,3.706,0,0,0-5.207-.033L7.485,23.891a3.706,3.706,0,0,0-1.119,2.654v16.09A3.706,3.706,0,0,0,10.072,46.341Z" transform="translate(-2 -0.065)" fill="#fff"/>
</svg>
