<svg xmlns="http://www.w3.org/2000/svg" width="53.05" height="63.245" viewBox="0 0 53.05 63.245">
  <g id="Notificaciones" transform="translate(-463.938 -288.217)">
    <g id="Capa_2" data-name="Capa 2" transform="translate(465.988 290.217)">
      <g id="Grupo_165" data-name="Grupo 165" transform="translate(0)">
        <path id="Trazado_2055" data-name="Trazado 2055" d="M549.558,574.562l18.223-.075s-.459,7.959-8.2,8.292S549.558,574.562,549.558,574.562Z" transform="translate(-534.582 -523.544)" fill="none" stroke="#fff" stroke-linecap="round" stroke-linejoin="round" stroke-width="4"/>
        <path id="Trazado_2056" data-name="Trazado 2056" d="M466.025,358.041l48.955.183a22.662,22.662,0,0,0-2.705-10.6c-2.851-4.967-3.531-4.248-3.377-6.026.232-2.7,1.114-14.354-3.72-22.454-2.584-4.33-5.937-7.585-13.82-8.048-22.63-1.331-18.232,30.162-18.232,30.162a38.6,38.6,0,0,0-3.888,5.181C465.4,352.683,466.025,358.041,466.025,358.041Z" transform="translate(-465.988 -307.321)" fill="none" stroke="#fff" stroke-linecap="round" stroke-linejoin="round" stroke-width="4"/>
        <path id="Trazado_2057" data-name="Trazado 2057" d="M590.11,290.217h0c1.471,0,2.663.776,2.663,1.734h0c0,.958-1.192,1.734-2.663,1.734h0c-1.471,0-2.663-.776-2.663-1.734h0C587.447,290.993,588.639,290.217,590.11,290.217Z" transform="translate(-565.681 -290.217)" fill="none" stroke="#fff" stroke-linecap="round" stroke-linejoin="round" stroke-width="4"/>
      </g>
    </g>
  </g>
</svg>
